<?xml version="1.0" encoding="UTF-8" standalone="no"?>
<!-- Created with Inkscape (http://www.inkscape.org/) -->

<svg
   xmlns:dc="http://purl.org/dc/elements/1.1/"
   xmlns:cc="http://creativecommons.org/ns#"
   xmlns:rdf="http://www.w3.org/1999/02/22-rdf-syntax-ns#"
   xmlns:svg="http://www.w3.org/2000/svg"
   xmlns="http://www.w3.org/2000/svg"
   xmlns:xlink="http://www.w3.org/1999/xlink"
   version="1.1"
   width="1222.1833"
   height="554.18445"
   id="svg2">
  <defs
     id="defs4">
    <linearGradient
       x1="150.96111"
       y1="192.35176"
       x2="112.03144"
       y2="137.27299"
       id="linearGradient1475"
       xlink:href="#linearGradient4671"
       gradientUnits="userSpaceOnUse"
       gradientTransform="matrix(0.562541,0,0,0.567972,127.99963,125.89385)" />
    <linearGradient
       id="linearGradient4671">
      <stop
         id="stop4673"
         style="stop-color:#ffd43b;stop-opacity:1"
         offset="0" />
      <stop
         id="stop4675"
         style="stop-color:#ffe873;stop-opacity:1"
         offset="1" />
    </linearGradient>
    <linearGradient
       x1="26.648937"
       y1="20.603781"
       x2="135.66525"
       y2="114.39767"
       id="linearGradient1478"
       xlink:href="#linearGradient4689"
       gradientUnits="userSpaceOnUse"
       gradientTransform="matrix(0.562541,0,0,0.567972,-9.399749,-5.305317)" />
    <linearGradient
       id="linearGradient4689">
      <stop
         id="stop4691"
         style="stop-color:#5a9fd4;stop-opacity:1"
         offset="0" />
      <stop
         id="stop4693"
         style="stop-color:#306998;stop-opacity:1"
         offset="1" />
    </linearGradient>
    <linearGradient
       x1="26.648937"
       y1="20.603781"
       x2="135.66525"
       y2="114.39767"
       id="linearGradient3194"
       xlink:href="#linearGradient4689"
       gradientUnits="userSpaceOnUse"
       gradientTransform="matrix(0.562541,0,0,0.567972,127.99963,125.89385)" />
    <linearGradient
       x1="26.648937"
       y1="20.603781"
       x2="135.66525"
       y2="114.39767"
       id="linearGradient3227"
       xlink:href="#linearGradient4689"
       gradientUnits="userSpaceOnUse"
       gradientTransform="matrix(0.562541,0,0,0.567972,127.99963,125.89385)" />
    <linearGradient
       x1="150.96111"
       y1="192.35176"
       x2="112.03144"
       y2="137.27299"
       id="linearGradient3229"
       xlink:href="#linearGradient4671"
       gradientUnits="userSpaceOnUse"
       gradientTransform="matrix(0.562541,0,0,0.567972,127.99963,125.89385)" />
  </defs>
  <metadata
     id="metadata7">
    <rdf:RDF>
      <cc:Work
         rdf:about="">
        <dc:format>image/svg+xml</dc:format>
        <dc:type
           rdf:resource="http://purl.org/dc/dcmitype/StillImage" />
        <dc:title></dc:title>
      </cc:Work>
    </rdf:RDF>
  </metadata>
  <g
     transform="translate(-164.71428,-192.84511)"
     id="layer1">
    <path
       d="m 972.69206,555.19257 c -0.45718,-0.45719 -0.83124,-27.23543 -0.83124,-59.50722 0,-61.04934 -0.0426,-61.57156 -5.02485,-61.57156 -2.55958,0 -4.31786,-3.02014 -5.7848,-9.93635 -1.59063,-7.49944 -3.73277,-15.64984 -4.84027,-18.41633 -0.53131,-1.32715 -1.66669,-4.74764 -2.52309,-7.60109 -0.8564,-2.85345 -1.96801,-5.44206 -2.47027,-5.75247 -0.50224,-0.31041 -2.36401,4.19593 -4.13726,10.01408 -1.77324,5.81815 -3.67798,11.66431 -4.23273,12.99145 -0.55474,1.32715 -1.3522,4.31323 -1.77212,6.63574 -1.20045,6.63959 -4.0925,12.06497 -6.43133,12.06497 -4.81155,0 -5.01068,1.56794 -5.01068,39.45245 0,39.70797 0.0937,39.22848 -6.5506,33.51437 l -3.53438,-3.03956 -23.57805,0.32641 -23.57805,0.32641 -5.68947,8.44548 c -3.12919,4.64501 -5.72328,8.88889 -5.76462,9.43085 -0.0414,0.54195 -1.43247,2.76489 -3.09141,4.93986 -1.65893,2.17498 -3.03576,4.44619 -3.05962,5.04712 -0.0239,0.60094 -1.24545,2.546 -2.71462,4.32235 -2.09896,2.5378 -4.6098,3.60567 -11.71996,4.98456 -4.9768,0.96515 -9.95721,2.13276 -11.06757,2.5947 -3.05931,1.27273 -4.81395,-3.21069 -4.41409,-11.27879 0.2487,-5.01838 -0.16543,-7.47481 -1.46537,-8.69199 -0.99662,-0.93318 -5.72403,-5.12117 -10.50534,-9.30667 l -8.6933,-7.60998 -54.94545,0.10231 c -43.57432,0.0812 -55.05518,-0.21661 -55.47557,-1.43875 -0.29155,-0.84758 -0.87691,-4.79861 -1.30079,-8.78005 -1.87391,-17.60125 -1.87581,-17.60865 -4.85522,-18.96617 -1.57337,-0.71688 -3.98315,-3.45693 -5.35507,-6.08901 -2.21158,-4.24301 -2.47475,-6.74116 -2.32119,-22.03317 0.0953,-9.48615 -0.28762,-17.99307 -0.85085,-18.90425 -0.56323,-0.91118 -3.57906,-3.71927 -6.70186,-6.2402 l -5.67781,-4.58349 -4.55361,3.41973 c -10.81546,8.12234 -10.03046,6.18528 -10.03046,24.75102 0,10.88939 -0.44149,16.67338 -1.27268,16.67338 -0.69999,0 -3.60003,1.06022 -6.44457,2.35606 -4.69908,2.14068 -5.52857,3.216 -9.0741,11.76335 -4.4321,10.68465 -6.10543,12.42353 -11.9552,12.42353 -4.1805,0 -9.84838,4.3651 -9.87181,7.60276 -0.0144,1.98119 -8.22324,10.49469 -10.11921,10.49469 -1.1107,0 -1.84881,-4.64091 -2.68304,-16.86976 -1.14597,-16.79866 -1.16752,-16.88699 -5.11175,-20.95641 -3.88007,-4.00321 -3.98308,-4.39155 -5.04624,-19.02352 -0.59694,-8.21528 -1.10547,-15.75127 -1.13009,-16.74663 -0.0246,-0.99536 -3.09512,-5.02829 -6.82334,-8.96209 l -6.77857,-7.15233 -7.08834,7.33385 -7.08834,7.33385 -0.0464,16.70944 -0.0465,16.70945 -3.87464,2.43383 -3.87464,2.43383 -0.91823,16.87013 c -1.23889,22.76044 -0.97707,22.29936 -12.66221,22.29936 -6.37241,0 -10.23567,-0.57875 -11.9694,-1.79311 -2.11479,-1.48124 -9.45323,-1.84845 -42.19423,-2.11137 l -39.63422,-0.31826 -0.75213,-19.9072 c -0.42538,-11.25914 -1.42574,-21.74165 -2.30272,-24.12995 -1.73885,-4.73538 -7.60631,-13.75997 -11.46681,-17.63682 -4.91463,-4.93542 -14.49137,-10.90736 -20.16513,-12.57474 -3.15197,-0.92628 -5.79037,-2.24428 -5.86313,-2.92888 -0.0727,-0.68459 -0.28188,-3.03334 -0.46475,-5.21944 -0.34079,-4.07372 -3.0684,-7.98748 -7.05282,-10.11988 -3.0087,-1.61022 -9.23402,4.16583 -9.25758,8.58946 -0.0256,4.80247 -1.3222,8.52138 -2.97103,8.52138 -3.80488,0 -16.87858,8.25783 -22.73885,14.3627 -11.57318,12.05622 -14.28148,19.87634 -14.01602,40.47069 0.10593,8.22005 -0.11655,15.44585 -0.49443,16.0573 -0.3779,0.61147 -14.62257,1.47993 -31.65481,1.92991 l -30.9677,0.81818 -6.18058,3.39232 c -3.39933,1.86577 -8.47723,4.8423 -11.28422,6.6145 -2.807,1.77221 -5.57321,3.22219 -6.14712,3.22219 -0.57392,0 -2.02617,1.08585 -3.22721,2.41299 -1.20106,1.32715 -2.6533,2.413 -3.22721,2.413 -0.57392,0 -3.27131,1.40636 -5.9942,3.12525 l -4.95072,3.12525 0.55243,9.54297 0.55243,9.54297 -3.72158,0.0187 c -15.0516,0.0755 -63.16733,1.32468 -69.77731,1.81143 l -8.14386,0.5997 0,-12.44652 0,-12.44653 5.85429,-6.07372 c 4.839,-5.02039 5.96302,-7.03839 6.48125,-11.63617 0.65098,-5.77536 3.90529,-9.56988 17.40656,-20.29595 2.55369,-2.02877 7.7085,-6.56612 11.45514,-10.08298 l 6.81208,-6.39431 0.74116,-13.10458 c 0.40765,-7.20752 0.9929,-16.17157 1.30056,-19.92012 0.65441,-7.97343 -0.94929,-10.18347 -6.57336,-9.05865 -1.96335,0.39267 -3.87586,0.21859 -4.25003,-0.38684 -0.37419,-0.60543 1.70004,-5.60969 4.60937,-11.12057 2.90934,-5.51089 8.16875,-15.44904 11.68758,-22.08477 3.51883,-6.63574 7.12177,-13.47333 8.00654,-15.19465 l 1.60867,-3.12968 23.83383,-0.83261 c 13.10861,-0.45794 34.42085,-1.11249 47.36053,-1.45455 12.93968,-0.34206 24.69879,-1.20317 26.13136,-1.9136 3.22041,-1.59701 4.50353,-11.10461 2.0032,-14.84316 -0.8754,-1.30889 -1.5728,-3.48058 -1.54978,-4.82598 0.045,-2.6306 11.35095,-18.73387 13.15288,-18.73387 0.59754,0 2.35229,2.02829 3.89946,4.50731 8.56463,13.72317 8.84766,14.40544 7.26852,17.52156 -0.88603,1.74844 -1.05582,5.04981 -0.48034,9.34005 l 0.8901,6.63573 7.8226,-0.35443 c 4.30241,-0.19495 9.39392,-0.97189 11.31442,-1.72656 3.06062,-1.20267 3.7553,-1.04673 5.62539,1.26272 1.17345,1.44916 2.49392,4.76784 2.93437,7.37485 0.47311,2.80033 2.25811,6.26492 4.362,8.46643 4.32095,4.52147 6.358,3.82953 12.23025,-4.15434 4.49174,-6.10691 7.07529,-6.69878 10.75708,-2.46434 3.12669,3.59601 3.90765,3.21691 6.8531,-3.32669 1.25707,-2.7927 3.98714,-7.18826 6.06683,-9.76789 2.0797,-2.57965 3.78126,-5.15854 3.78126,-5.73087 0,-0.57233 1.53647,-1.0406 3.41437,-1.0406 2.4823,0 5.08663,1.65477 9.54008,6.0617 l 6.12569,6.06168 3.73139,-4.52684 c 2.05227,-2.48976 3.7314,-4.94606 3.7314,-5.45843 0,-1.9582 5.39922,-0.8137 8.09097,1.71506 3.62214,3.40282 5.09182,1.92506 8.03171,-8.07591 1.17038,-3.98144 2.69144,-8.86775 3.38012,-10.85847 0.68869,-1.99072 1.52459,-4.8028 1.85756,-6.24908 0.75822,-3.29345 3.17339,-3.68184 29.31252,-4.71392 10.94896,-0.43231 20.58586,-1.33077 21.41532,-1.99659 0.82947,-0.66583 1.50813,-3.27414 1.50813,-5.79628 0,-3.22916 0.98148,-5.7682 3.31786,-8.58311 9.46939,-11.40891 9.15023,-11.30682 16.38447,-5.24061 2.76697,2.32022 7.38965,6.12068 10.27261,8.44548 l 5.24178,4.22691 13.61283,0 c 10.47118,0 13.95069,-0.40709 15.07674,-1.7639 1.02709,-1.23757 1.4283,-7.62783 1.34458,-21.41533 -0.0656,-10.80828 0.3511,-20.37354 0.92609,-21.25616 1.67,-2.56339 7.76181,-1.22142 9.39366,2.06935 0.78483,1.58268 2.15472,3.33887 3.04419,3.90264 2.622,1.66187 22.2463,1.29208 23.67542,-0.44613 0.68196,-0.82947 1.63427,-7.6407 2.11625,-15.13608 0.83539,-12.99143 0.75263,-13.7596 -1.77179,-16.44672 -2.06196,-2.19485 -2.56445,-3.98535 -2.27015,-8.089 l 0.37796,-5.27022 5.82459,-0.37155 c 3.20354,-0.20436 6.54847,0.2292 7.43321,0.96345 1.06809,0.88643 1.86253,0.92414 2.36433,0.1122 0.45635,-0.73838 6.35425,-1.12008 14.88701,-0.96346 l 14.13125,0.25936 0.36768,5.05978 c 0.20833,2.86689 -0.42443,6.59157 -1.46,8.59415 -1.00522,1.94389 -1.48739,3.87464 -1.07147,4.29057 0.41592,0.41591 10.59963,0.7562 22.63047,0.7562 l 21.87425,0 4.71246,-4.82598 4.71245,-4.82599 24.94385,0 c 21.6618,0 25.16172,-0.26085 26.59971,-1.98242 1.42179,-1.7022 4.38609,-14.06265 6.69888,-27.93281 1.05628,-6.33465 3.3333,-3.77677 4.16159,4.67489 2.32759,23.75012 3.61213,30.67293 6.08255,32.78094 2.92164,2.49304 15.35335,2.96042 17.6502,0.66358 0.89011,-0.89012 1.44779,-5.24995 1.44779,-11.31853 0,-9.82647 0.0186,-9.88489 4.14225,-13.03016 2.27822,-1.7377 4.5429,-3.15945 5.03261,-3.15945 0.4897,0 1.84012,-0.8595 3.00093,-1.91003 1.16081,-1.0505 3.91817,-2.96088 6.12749,-4.24527 9.71818,-5.64968 11.38127,-5.99363 27.28868,-5.64374 14.73199,0.32404 15.32269,0.43588 14.99472,2.83924 -0.18779,1.37605 0.10677,3.71363 0.65466,5.19462 l 0.99609,2.69269 4.63885,-3.6865 c 2.55137,-2.02756 5.31317,-3.68648 6.13735,-3.68648 0.82419,0 3.53656,2.48715 6.0275,5.52702 l 4.52898,5.52702 5.61139,-5.52702 c 3.08627,-3.03987 6.44524,-5.52702 7.46437,-5.52702 1.01913,0 3.36801,1.90023 5.21973,4.22273 1.85173,2.32251 3.91952,4.22274 4.5951,4.22274 0.67559,0 3.33167,-1.90023 5.9024,-4.22274 2.57073,-2.3225 5.32827,-4.22273 6.12785,-4.22273 0.79957,0 3.45788,1.95696 5.90735,4.3488 l 4.45358,4.3488 4.04277,-2.84068 c 2.22353,-1.56237 4.47694,-3.51934 5.00759,-4.3488 1.68377,-2.6319 5.06882,-1.64096 9.29725,2.72167 l 4.09969,4.22981 4.33171,-4.22981 c 5.22124,-5.0984 6.68089,-5.21725 11.20025,-0.91193 l 3.48282,3.31787 2.67551,-3.33606 c 2.2013,-2.74478 3.31841,-3.20749 6.30275,-2.61062 2.34473,0.46894 4.07334,0.15543 4.88891,-0.88668 0.69392,-0.88667 2.22004,-7.85574 3.39138,-15.48684 1.17135,-7.63109 2.32065,-14.55337 2.55401,-15.38283 0.55419,-1.96985 4.31637,-1.96985 3.92787,0 -0.1636,0.82946 0.3196,3.40835 1.0739,5.73086 0.7543,2.3225 2.2916,8.56613 3.4162,13.87471 1.1247,5.30859 2.5917,10.33954 3.2601,11.17988 0.8479,1.06606 2.9891,1.29259 7.0835,0.74944 l 5.8684,-0.77846 0,6.34714 c 0,4.32273 -0.8004,7.6422 -2.5095,10.4076 -2.1126,3.41825 -2.5095,6.00836 -2.5095,16.37574 0,10.3923 0.3336,12.55923 2.1368,13.87776 1.6446,1.20257 11.1033,1.56251 41.0607,1.56251 39.5326,0 46.7756,-0.71362 43.7875,-4.31417 -0.695,-0.83735 -1.0979,-4.41687 -0.8955,-7.95448 l 0.3681,-6.43206 5.3274,-0.38076 c 3.8298,-0.27371 6.2187,0.27809 8.4974,1.96281 3.1039,2.29486 3.2278,2.2965 5.9662,0.0791 3.3075,-2.67826 10.7265,-2.99082 14.0095,-0.5902 1.9583,1.43188 2.6743,1.4222 4.9469,-0.0668 1.7079,-1.11904 4.9594,-1.60943 9.1011,-1.3726 l 6.4439,0.36845 0.3583,6.15205 c 0.3239,5.5615 -0.064,6.65796 -4.0448,11.4223 -3.9821,4.76625 -4.325,5.73553 -3.5862,10.13566 0.9349,5.56744 1.2967,10.21144 1.6171,20.76532 0.1527,5.03386 0.8636,8.09172 2.1889,9.41705 1.8124,1.81249 2.1645,1.77293 4.6021,-0.51707 3.2171,-3.02236 6.1952,-3.17945 7.7458,-0.40859 1.031,1.84217 1.509,1.88385 4.3246,0.37698 2.8631,-1.53231 3.4033,-1.45633 5.6552,0.79559 2.1504,2.15047 2.9843,2.3046 6.1189,1.13114 3.4542,-1.29304 3.8779,-1.08434 8.7839,4.32738 5.0683,5.59089 5.1904,5.64635 7.2976,3.31786 3.0242,-3.34167 5.7645,-2.94821 9.315,1.33746 2.7542,3.32457 3.3304,3.54281 5.6042,2.12278 1.5285,-0.95456 2.5344,-2.83888 2.5344,-4.74751 0,-3.22466 5.1464,-9.52628 7.7799,-9.52628 1.9673,0 6.6981,6.65043 6.6981,9.41613 0,3.72004 3.6713,5.8946 13.6632,8.09306 7.4016,1.62849 9.6639,2.63293 10.4746,4.65055 0.8637,2.14964 3.446,13.08497 5.4511,23.0839 0.2661,1.32714 1.6325,3.12281 3.0362,3.99038 3.345,2.06731 5.9828,0.0128 5.9828,-4.66006 0,-2.46197 0.7433,-3.62127 2.7146,-4.2333 1.4931,-0.46356 4.072,-1.7586 5.7309,-2.87787 4.5457,-3.06699 17.4373,-2.56706 22.9234,0.88897 2.3225,1.46306 4.9094,2.66215 5.7486,2.66462 1.807,0.005 6.3054,6.9971 6.3118,9.81039 0,1.08 0.866,2.67858 1.919,3.55241 1.8652,1.54805 1.881,4.3847 0.066,11.84983 -1.0136,4.1685 0.146,5.19771 3.4308,3.04541 2.1853,-1.43191 3.45,-1.573 5.287,-0.58984 1.328,0.71074 4.2663,1.29225 6.5297,1.29225 4.1123,0 8.1085,2.91359 8.1085,5.91204 0,2.74782 2.9505,4.487 10.0109,5.90088 3.847,0.77039 7.7462,2.09239 8.6648,2.93776 0.9186,0.84537 5.0361,4.25165 9.1496,7.56951 4.1137,3.31787 9.5538,7.93272 12.0891,10.25523 l 4.6097,4.22274 0.6719,37.31135 c 0.3694,20.52125 0.9385,37.5781 1.2645,37.90412 0.326,0.32602 0.5934,13.93963 0.5941,30.25248 l 0,29.65972 -24.4329,-0.33447 c -13.4381,-0.18395 -25.0652,-0.55634 -25.8381,-0.82752 -0.7729,-0.27117 -2.1302,-1.82156 -3.0163,-3.44531 -3.4137,-6.25584 -14.3752,-22.25179 -16.674,-24.33208 -1.3269,-1.2009 -6.896,-3.32468 -12.3755,-4.7195 l -9.9615,-2.53603 -0.2952,-5.42924 c -1.4039,-25.82155 -14.5987,-45.75603 -37.1062,-56.05936 -2.6543,-1.21506 -5.1493,-2.70382 -5.5443,-3.30833 -0.3951,-0.60453 -0.7565,-7.17509 -0.8032,-14.60125 -0.098,-15.54788 -1.1672,-19.28263 -6.2798,-21.9264 -4.1618,-2.15215 -6.138,-1.50288 -10.8994,3.58101 -2.8417,3.03415 -3.0392,4.11937 -3.4127,18.75342 l -0.3963,15.5329 -6.3499,1.846 c -17.5339,5.09723 -31.9868,18.97251 -38.8765,37.32288 -1.3354,3.55692 -2.0493,11.37674 -2.4927,27.30461 -0.6323,22.71831 -1.0352,24.59409 -5.7309,26.68364 -1.3545,0.60269 -4.1867,2.14135 -6.2941,3.41921 -2.9468,1.78691 -6.4291,2.38168 -15.0812,2.57585 l -11.2496,0.25243 -0.3724,-6.43064 c -0.4636,-8.00832 -3.0968,-10.70425 -6.9445,-7.11015 -2.6451,2.47086 -8.3284,3.13576 -9.5741,1.12011 -1.1303,-1.82869 -6.1441,-1.44302 -7.8422,0.60325 -1.9192,2.31239 -4.1761,2.29124 -7.7844,-0.073 -2.4057,-1.57636 -3.2822,-1.62729 -5.3867,-0.31303 -1.9751,1.23345 -2.5134,2.79987 -2.5134,7.31198 l 0,5.74227 -27.7494,0 -27.7495,0 0,-5.03262 c 0,-6.87678 -2.6021,-9.6745 -7.432,-7.99078 -2.3117,0.80584 -4.5592,0.85327 -6.2352,0.13157 -2.9389,-1.26557 -6.8433,-0.76755 -6.8433,0.87287 0,0.59157 -1.131,1.68088 -2.5133,2.42069 -2.006,1.07357 -2.9817,0.92126 -4.8334,-0.75448 -3.0735,-2.78148 -3.6544,-1.93593 -3.93,5.72049 l -0.2318,6.442 -21.16394,0.32854 c -11.64015,0.18069 -21.53797,-0.0455 -21.99516,-0.50271 z"
       id="path3094"
       style="fill:#99979d;fill-opacity:1" />
    <g
       id="text3096"
       style="font-size:263.46011353px;font-style:normal;font-variant:normal;font-weight:bold;font-stretch:normal;text-align:start;line-height:125%;letter-spacing:0px;word-spacing:0px;writing-mode:lr-tb;text-anchor:start;fill:#000000;fill-opacity:1;stroke:none;font-family:Vollkorn;-inkscape-font-specification:Vollkorn Bold">
      <path
         d="m 231.63375,564.18827 c 9.30884,1.8e-4 18.52993,0.9662 27.66331,2.89806 9.30881,1.75658 16.24659,4.0399 20.81335,6.84996 -1.2e-4,19.32056 0.61462,33.19612 1.84422,41.6267 -3.33728,1.93217 -7.8161,3.33729 -13.43646,4.21536 -5.44495,0.87833 -10.80197,1.31743 -16.07107,1.3173 -1.93214,-13.3485 -5.09365,-22.65742 -9.48457,-27.92677 -4.39108,-5.26904 -10.1872,-7.90364 -17.38836,-7.9038 -5.79619,1.6e-4 -10.53847,1.31746 -14.22685,3.9519 -3.51285,2.63475 -5.26925,6.58665 -5.2692,11.85571 -5e-5,4.56678 1.40507,8.60649 4.21536,12.11916 2.98583,3.33729 6.67426,6.23535 11.06533,8.69418 4.39093,2.45909 10.53833,5.44496 18.4422,8.95765 11.06523,4.91803 20.11069,9.57249 27.13639,13.96338 7.20113,4.3911 13.34853,10.36286 18.44221,17.91529 5.09343,7.37696 7.64021,16.59805 7.64035,27.66331 -1.4e-4,17.38841 -6.411,31.17614 -19.23259,41.36324 -12.82183,10.18713 -30.82492,15.28069 -54.00933,15.28069 -10.88973,0 -20.63775,-1.14166 -29.24407,-3.42498 -8.60639,-2.45896 -17.21274,-6.1474 -25.81909,-11.06533 2.28331,-11.41658 3.42497,-26.34597 3.42498,-44.78822 8.07943,-2.10762 18.61782,-3.16146 31.61522,-3.16152 0.70251,10.88974 1.84417,19.23263 3.42498,25.02871 1.75635,5.62051 4.21531,9.66023 7.37688,12.11917 3.33711,2.45898 8.07938,3.68846 14.22685,3.68844 8.07936,2e-5 14.13894,-1.66856 18.17874,-5.00574 4.21528,-3.51278 6.32296,-7.72813 6.32305,-12.64609 -9e-5,-5.62044 -2.37123,-10.18708 -7.11343,-13.69992 -4.74236,-3.68839 -12.11923,-7.99157 -22.13065,-12.90955 -10.71409,-5.09349 -19.49609,-9.92359 -26.34601,-14.49031 -6.84999,-4.56656 -12.82175,-10.88959 -17.91528,-18.96912 -4.91794,-8.07934 -7.3769,-18.09082 -7.37689,-30.03446 -1e-5,-18.09078 5.79611,-31.52723 17.38837,-40.30939 11.5922,-8.78183 26.87288,-13.17283 45.84206,-13.17301"
         id="path3002"
         style="line-height:125%;letter-spacing:-5.48875237px;font-family:Vollkorn;-inkscape-font-specification:Vollkorn Bold" />
      <path
         d="m 444.06767,717.2586 c 0.35113,1.58078 0.52677,3.8641 0.52692,6.84996 -1.5e-4,5.26922 -1.14181,9.92367 -3.42498,13.96338 -17.03722,0.35129 -32.84481,3.33717 -47.42282,8.95765 -3.68854,-1.40512 -6.32314,-3.33716 -7.9038,-5.79612 -1.40521,-2.45896 -2.10777,-5.53266 -2.10768,-9.22111 -9e-5,-4.39098 0.61465,-8.78198 1.84422,-13.173 -3.68853,8.07946 -7.99171,14.05121 -12.90955,17.91528 -8.78207,6.49869 -19.14483,9.74803 -31.08829,9.74803 -28.10243,0 -42.15363,-10.5384 -42.15362,-31.61522 -10e-6,-11.06528 4.39099,-19.75945 13.17301,-26.08255 8.78197,-6.32298 18.44217,-10.80179 28.98061,-13.43646 10.71398,-2.63453 23.27224,-4.91785 37.6748,-6.84997 -9e-5,-5.97168 -0.43919,-10.71395 -1.31731,-14.22684 -0.87828,-3.51271 -2.45904,-6.49859 -4.74228,-8.95765 -1.58084,-1.7563 -3.6007,-3.07359 -6.05958,-3.9519 -2.45903,-1.05373 -4.91799,-1.58065 -7.37688,-1.58076 -5.62055,1.1e-4 -9.92372,2.45907 -12.90955,7.37689 -2.98593,4.91801 -5.00579,12.03143 -6.05958,21.34026 -7.02565,8e-5 -12.64612,-0.17556 -16.86145,-0.52692 -4.03975,-0.52684 -7.99165,-1.49286 -11.8557,-2.89806 0.35126,-4.56655 0.5269,-8.16717 0.52692,-10.80186 -2e-5,-6.84987 -0.7904,-14.57802 -2.37114,-23.18449 16.86141,-6.32292 35.7427,-9.48444 56.64392,-9.48457 13.87548,1.3e-4 24.67733,1.05397 32.40559,3.16153 7.72805,1.93215 13.69981,5.26931 17.91529,10.01148 3.86396,4.03983 6.84983,9.2212 8.95765,15.54415 2.10754,6.32313 3.16138,15.28076 3.16152,26.87293 l 0,17.38837 c -1.4e-4,6.67436 0.35114,11.50446 1.05384,14.4903 0.70242,2.98592 2.01972,5.09359 3.9519,6.32304 2.10754,1.05387 5.35687,1.66861 9.74802,1.84423 m -64.81118,-31.87868 c -11.0654,2.10774 -19.05702,4.91798 -23.97488,8.43073 -4.74233,3.51284 -7.11347,7.81602 -7.11342,12.90954 -5e-5,7.37691 3.3371,11.06535 10.01149,11.06533 5.44477,2e-5 10.27486,-2.45894 14.4903,-7.37689 4.39092,-5.09352 6.58642,-11.94348 6.58651,-20.54989 l 0,-4.47882"
         id="path3004"
         style="line-height:125%;letter-spacing:-5.48875237px;font-family:Vollkorn;-inkscape-font-specification:Vollkorn Bold" />
      <path
         d="m 467.51838,600.01884 c -0.35131,-5.09341 -1.93206,-8.78185 -4.74228,-11.06532 -2.63462,-2.4588 -7.55254,-4.03956 -14.75377,-4.74228 0,-8.78184 1.14165,-15.36833 3.42498,-19.75951 12.29479,1.8e-4 23.71138,-0.87802 34.24982,-2.6346 10.53835,-1.75622 18.09086,-3.77608 22.65757,-6.05958 6.14733,2.81042 9.22103,8.4309 9.2211,16.86144 l 0,129.35892 c -7e-5,5.9718 0.43903,10.53844 1.3173,13.69992 1.05376,3.16155 2.81016,5.44487 5.2692,6.84997 2.45888,1.2295 6.0595,2.01988 10.80187,2.37114 1.40502,4.39102 2.10758,11.24097 2.10768,20.54989 -6.49877,-0.52692 -21.34034,-0.79038 -44.52476,-0.79038 -23.36016,0 -38.20173,0.26346 -44.52476,0.79038 0,-9.48456 0.79037,-16.33451 2.37114,-20.54989 4.74227,-0.35126 8.25507,-1.14164 10.53841,-2.37114 2.45894,-1.4051 4.12752,-3.6006 5.00574,-6.58651 1.05381,-3.16148 1.58073,-7.81594 1.58076,-13.96338 l 0,-101.95907"
         id="path3006"
         style="line-height:125%;letter-spacing:-5.48875237px;font-family:Vollkorn;-inkscape-font-specification:Vollkorn Bold" />
      <path
         d="m 666.1865,697.23563 c -1.2e-4,19.32043 0.70244,33.19599 2.10769,41.62669 -1.93217,4.21537 -6.05971,6.32305 -12.38263,6.32305 -9.66031,0 -17.56411,-0.0878 -23.71141,-0.26346 l -29.24407,-0.26346 c -20.54994,0 -37.14791,0.17564 -49.79396,0.52692 -1.58078,-2.45896 -2.89808,-5.44484 -3.95191,-8.95765 -1.05385,-3.68843 -1.58077,-7.20122 -1.58076,-10.5384 21.77934,-29.85876 40.13371,-57.17077 55.06317,-81.9361 l -4.47882,0 c -4.91798,10e-5 -8.78206,0.70266 -11.59225,2.10768 -2.63465,1.40522 -4.83015,3.952 -6.5865,7.64035 -1.5808,3.51289 -2.98592,8.78208 -4.21536,15.8076 -5.44488,0.35136 -10.71408,0.17572 -15.80761,-0.52692 -5.09358,-0.70248 -9.22112,-1.93196 -12.38263,-3.68844 2.10767,-10.71395 3.16151,-24.67732 3.16153,-41.89016 10.88966,0.52705 29.5953,0.79051 56.117,0.79039 22.83312,1.2e-4 40.04583,-0.26334 51.63818,-0.79039 2.81012,4.21548 4.21524,9.74814 4.21536,16.59799 -13.52439,24.76533 -31.35184,53.13118 -53.4824,85.09762 l 10.27494,0 c 5.44476,2e-5 9.48448,-0.966 12.11917,-2.89806 2.81014,-1.93202 4.83,-5.00572 6.05958,-9.22111 1.22938,-4.21532 2.10758,-10.36272 2.6346,-18.4422 9.30882,-0.52687 17.91517,0.43915 25.81909,2.89806"
         id="path3008"
         style="line-height:125%;letter-spacing:-5.48875237px;font-family:Vollkorn;-inkscape-font-specification:Vollkorn Bold" />
      <path
         d="m 764.91681,666.93771 c 6.32294,8e-5 11.59213,-3.07362 15.8076,-9.2211 4.39089,-6.32295 6.58639,-16.15878 6.58651,-29.50753 -1.2e-4,-12.29468 -2.45908,-22.21833 -7.37689,-29.771 -4.74239,-7.72801 -11.59234,-11.59208 -20.54988,-11.59224 -4.56673,1.6e-4 -8.34299,0.6149 -11.32879,1.84422 l 0,104.06674 c -8e-5,11.41665 2.01978,19.49609 6.05958,24.23834 4.03963,4.56666 11.59215,7.20126 22.65757,7.9038 1.58065,4.39102 2.37103,11.24097 2.37114,20.54989 -10.01158,-0.52692 -26.69737,-0.79038 -50.05742,-0.79038 -23.36017,0 -41.0998,0.26346 -53.21894,0.79038 -10e-6,-8.95764 0.61473,-15.80759 1.84422,-20.54989 5.09355,-0.35126 8.78199,-1.31728 11.06532,-2.89806 2.45894,-1.58074 4.12752,-4.30316 5.00575,-8.16727 1.05381,-4.03968 1.58073,-10.18708 1.58076,-18.4422 l 0,-80.09188 c -3e-5,-8.25494 -0.43913,-14.2267 -1.3173,-17.91529 -0.70259,-3.68829 -2.19553,-6.23507 -4.47882,-7.64034 -2.28335,-1.5806 -6.0596,-2.72226 -11.32879,-3.42498 -1.58077,-6.32288 -2.37115,-13.17284 -2.37114,-20.54989 16.68578,0.5271 31.87863,0.79056 45.5786,0.79038 9.4845,1.8e-4 16.86138,-0.0876 22.13065,-0.26346 l 35.04019,-0.26346 c 20.37412,1.8e-4 35.21569,5.3572 44.52476,16.07107 9.4844,10.53855 14.22668,24.32629 14.22685,41.36324 -1.7e-4,12.11927 -2.63477,23.09676 -7.9038,32.93251 -5.09372,9.66028 -12.38278,17.38844 -21.86719,23.18449 -9.30906,5.62054 -20.19873,8.43078 -32.66906,8.43072 -7.55262,6e-5 -13.6122,-0.87814 -18.17875,-2.6346 -0.35136,-2.81018 -0.527,-4.91786 -0.52692,-6.32304 -8e-5,-4.91785 0.96593,-9.13321 2.89806,-12.64609 1.40503,0.35136 3.33707,0.527 5.79613,0.52692"
         id="path3010"
         style="letter-spacing:-10.97750473px" />
      <path
         d="m 992.5642,671.68 c -1.5e-4,15.9833 -1.14181,28.80501 -3.42498,38.46517 -2.28347,9.48459 -6.41101,17.12493 -12.38262,22.92103 -10.01162,9.30893 -25.55575,13.96339 -46.63244,13.96339 -17.56409,0 -31.43964,-2.1955 -41.6267,-6.5865 -10.18717,-4.56664 -17.47622,-11.50441 -21.86719,-20.81335 -4.21539,-9.48453 -6.32307,-22.13061 -6.32304,-37.93826 l 0,-65.07465 c -3e-5,-8.25495 -0.52695,-14.31452 -1.58076,-18.17875 -0.87823,-4.03957 -2.45898,-6.84981 -4.74229,-8.43072 -2.28333,-1.5806 -5.97177,-2.81008 -11.06532,-3.68844 -1.40513,-5.9716 -2.10769,-12.82156 -2.10768,-20.54989 7.20123,0.5271 19.14474,0.79056 35.83057,0.79038 28.10235,1.8e-4 46.3689,-0.26328 54.79971,-0.79038 -10e-5,8.78217 -0.52702,15.63213 -1.58076,20.54989 -5.09365,0.87836 -8.78209,2.10784 -11.06533,3.68844 -2.10776,1.58091 -3.6007,4.30333 -4.47882,8.16726 -0.87828,3.86423 -1.31738,10.01162 -1.3173,18.44221 l 0,60.59583 c -8e-5,16.33458 2.45888,28.54155 7.37688,36.62095 4.91784,7.90383 12.29471,11.85573 22.13065,11.85571 4.39089,2e-5 8.60625,-0.87818 12.64609,-2.6346 4.0396,-1.93202 7.37675,-4.83008 10.01148,-8.69419 2.45883,-3.6884 4.30305,-8.9576 5.53267,-15.8076 1.22934,-6.84991 1.84408,-16.68575 1.84422,-29.50754 l 0,-47.42282 c -1.4e-4,-8.78187 -0.52706,-15.544 -1.58076,-20.28642 -1.05398,-4.74214 -2.81038,-8.16712 -5.26921,-10.27495 -2.45909,-2.28316 -5.97188,-3.86392 -10.5384,-4.74228 -1.05396,-7.20108 -1.58088,-14.05103 -1.58076,-20.54989 7.20112,0.5271 17.03695,0.79056 29.50753,0.79038 12.29465,1.8e-4 21.69136,-0.26328 28.19026,-0.79038 -2e-4,8.60653 -0.7028,15.45649 -2.1077,20.54989 -4.5668,0.70272 -8.0796,2.10784 -10.53841,4.21536 -2.28348,1.93219 -3.86424,5.09371 -4.74228,9.48456 -0.87836,4.39115 -1.31746,10.802 -1.31731,19.23259 l 0,52.42857"
         id="path3012"
         style="letter-spacing:-16.4662571px" />
      <path
         d="m 1124.2325,696.97217 c -10e-5,-5.26915 -0.527,-9.22105 -1.5808,-11.85571 -0.8783,-2.81018 -2.6347,-4.74222 -5.2692,-5.79612 -2.459,-1.05377 -6.3231,-1.75633 -11.5922,-2.10768 -1.0539,-5.62041 -1.5809,-12.38255 -1.5808,-20.28643 6.8499,0.52701 18.8812,0.79047 36.0941,0.79038 17.5638,9e-5 30.0343,-0.17555 37.4113,-0.52692 -2e-4,8.25516 -0.5271,14.92948 -1.5808,20.02297 -4.3911,0.35135 -7.1135,1.493 -8.1672,3.42498 -1.054,1.9321 -1.5809,5.97182 -1.5808,12.11916 l 0,6.32305 c -10e-5,6.67436 0.2633,11.76792 0.7904,15.28068 0.7024,3.51283 1.9319,7.55255 3.6884,12.11917 -8.4308,6.14741 -18.5301,11.15315 -30.2979,15.01723 -11.5923,3.68844 -23.7993,5.53266 -36.6209,5.53266 -18.618,0 -34.8646,-3.86408 -48.7401,-11.59225 -13.8757,-7.90378 -24.5897,-18.79346 -32.1422,-32.66905 -7.3769,-14.05115 -11.0653,-30.21002 -11.0653,-48.47666 0,-19.3203 4.2153,-35.74263 12.6461,-49.26704 8.4307,-13.52414 19.6716,-23.71125 33.7229,-30.56138 14.0511,-6.84978 29.5952,-10.27476 46.6324,-10.27494 10.5383,1.8e-4 21.1645,1.31748 31.8787,3.9519 10.8895,2.63478 20.5497,5.88411 28.9806,9.74803 -1.9322,11.06548 -2.8982,24.67757 -2.8981,40.83631 -3.3373,1.58089 -7.1135,2.63473 -11.3287,3.16152 -4.0399,0.35141 -8.9578,0.52705 -14.7538,0.52692 -0.7027,-13.34851 -3.8642,-22.92088 -9.4846,-28.71715 -5.4449,-5.9716 -13.4366,-8.95748 -23.9748,-8.95764 -12.9975,1.6e-4 -22.5699,6.05973 -28.7172,18.17875 -6.1475,12.11929 -9.2212,27.1365 -9.2211,45.05168 -10e-5,15.10512 1.6685,28.6294 5.0057,40.57285 3.5128,11.76793 8.4307,20.98903 14.7538,27.66332 6.323,6.4987 13.6998,9.74804 22.1307,9.74802 3.8639,2e-5 6.762,-0.35126 8.6941,-1.05384 2.8102,-1.05382 4.83,-2.89804 6.0596,-5.53266 1.405,-2.63458 2.1076,-7.11339 2.1077,-13.43647 l 0,-8.95764"
         id="path3014"
         style="letter-spacing:-16.4662571px" />
    </g>
    <g
       transform="matrix(1.7018747,0,0,1.7018747,954.36256,321.58602)"
       id="g3223">
      <path
         d="m 197.90954,137.59714 c -4.58366,0.0213 -8.96094,0.41222 -12.8125,1.09375 -11.34622,2.00451 -13.40625,6.2001 -13.40625,13.9375 l 0,10.21875 26.8125,0 0,3.40625 -26.8125,0 -10.0625,0 c -7.79246,0 -14.61576,4.68372 -16.75,13.59375 -2.46182,10.21297 -2.57102,16.58602 0,27.25 1.90593,7.93785 6.45754,13.59375 14.25,13.59375 l 9.21875,0 0,-12.25 c 0,-8.8499 7.65714,-16.65625 16.75,-16.65625 l 26.78125,0 c 7.45495,0 13.40625,-6.13816 13.40625,-13.625 l 0,-25.53125 c 0,-7.26634 -6.12998,-12.72478 -13.40625,-13.9375 -4.60599,-0.76672 -9.3851,-1.11505 -13.96875,-1.09375 z m -14.5,8.21875 c 2.76954,0 5.03125,2.29865 5.03125,5.125 -1e-5,2.81634 -2.26171,5.09375 -5.03125,5.09375 -2.77948,0 -5.03125,-2.27741 -5.03125,-5.09375 0,-2.82635 2.25177,-5.125 5.03125,-5.125 z"
         id="path1948"
         style="fill:url(#linearGradient3227);fill-opacity:1" />
      <path
         d="m 228.62829,166.25339 0,11.90625 c 0,9.23076 -7.8259,17 -16.75,17 l -26.78125,0 c -7.33584,0 -13.40625,6.27848 -13.40625,13.625 l 0,25.53125 c 0,7.26634 6.31858,11.54032 13.40625,13.625 8.48733,2.49561 16.62623,2.94663 26.78125,0 6.75015,-1.95439 13.40625,-5.88761 13.40625,-13.625 l 0,-10.21875 -26.78125,0 0,-3.40625 26.78125,0 13.40625,0 c 7.79246,0 10.69625,-5.43541 13.40624,-13.59375 2.79933,-8.39888 2.68022,-16.47577 0,-27.25 -1.92578,-7.75744 -5.60387,-13.59375 -13.40624,-13.59375 l -10.0625,0 z m -15.0625,64.65625 c 2.77947,0 5.03125,2.27742 5.03125,5.09375 -1e-5,2.82635 -2.25178,5.125 -5.03125,5.125 -2.76955,0 -5.03125,-2.29865 -5.03125,-5.125 0,-2.81633 2.26169,-5.09375 5.03125,-5.09375 z"
         id="path1950"
         style="fill:url(#linearGradient3229);fill-opacity:1" />
    </g>
  </g>
</svg>
